<svg version="1.1" id="Layer_1" xmlns="http://www.w3.org/2000/svg" xmlns:xlink="http://www.w3.org/1999/xlink" x="0px" y="0px"
	 width="100%" viewBox="0 0 1024 1024" enable-background="new 0 0 1024 1024" xml:space="preserve">
<path fill="#000000" opacity="1.000000" stroke="none" 
	d="
M485.382324,759.215698 
	C522.113464,755.581177 548.543518,735.806824 569.480713,707.587158 
	C592.350220,676.763184 605.126526,641.651367 611.417664,604.059631 
	C612.894714,595.233582 613.779236,586.286621 613.671204,577.266541 
	C613.491394,562.245544 605.207947,552.498230 590.207153,550.359863 
	C571.880798,547.747620 554.488464,552.215576 537.468628,558.175842 
	C525.696655,562.298157 514.290771,567.454468 502.623199,571.890686 
	C495.714081,574.517639 488.500427,575.394531 481.079224,574.360901 
	C470.883789,572.940735 466.374939,566.099060 469.314392,556.106201 
	C472.002075,546.969238 478.652802,540.812317 485.834320,535.340576 
	C507.519592,518.817871 532.352844,509.903046 559.056274,505.568604 
	C579.698608,502.217926 600.142395,502.534515 620.265259,508.582092 
	C636.804871,513.552795 651.255371,521.757263 660.554626,536.982910 
	C666.030823,545.949097 668.476013,555.987000 669.321289,566.355896 
	C672.484497,605.159058 662.534668,641.417480 647.482361,676.612976 
	C631.751831,713.394470 608.875244,744.984680 577.906616,770.426941 
	C553.512634,790.467896 525.737122,802.604858 494.016479,805.524353 
	C450.587646,809.521484 410.299011,800.601257 373.594421,776.871033 
	C336.866364,753.125610 311.753998,719.763672 294.402344,680.066223 
	C283.963409,656.183777 277.069885,631.323181 272.537903,605.692383 
	C267.009918,574.428833 265.558136,542.909302 266.890320,511.318237 
	C269.108429,458.719757 280.265137,407.976471 301.796967,359.831696 
	C326.204559,305.256836 360.400116,258.013123 408.678589,221.909927 
	C439.498566,198.862442 473.983795,183.823807 512.227783,178.932007 
	C547.522278,174.417511 582.087280,177.744461 614.045227,194.977127 
	C640.959412,209.490051 656.752808,232.261307 660.153809,262.705505 
	C664.070862,297.769348 654.239685,329.632416 634.686157,358.494171 
	C609.024109,396.372314 571.979858,416.526306 527.982727,425.405212 
	C510.089355,429.016205 492.044220,429.808624 473.894958,428.337860 
	C445.838226,426.064240 418.997803,419.747406 395.511688,403.286926 
	C386.969757,397.300201 379.642761,390.074036 376.257416,379.706696 
	C373.132446,370.136871 377.320557,360.578003 385.933228,358.154449 
	C390.888397,356.760071 395.547363,357.813293 399.774902,360.546844 
	C418.788239,372.841034 439.475006,380.951996 461.861511,384.011566 
	C505.007477,389.908478 545.020386,383.159149 577.622192,351.682373 
	C593.264587,336.579712 602.193359,317.500305 605.637695,295.977448 
	C607.054138,287.126404 608.147095,278.335785 606.914001,269.247192 
	C604.860962,254.116058 596.806213,243.503387 583.886475,236.190109 
	C573.427551,230.269821 561.957520,227.590881 550.116150,226.355606 
	C505.505646,221.701920 467.461578,236.998718 433.597809,264.859009 
	C392.230530,298.892548 364.457642,342.263763 345.900726,392.076263 
	C335.992950,418.671753 329.528046,446.090027 325.567047,474.093842 
	C323.172363,491.023865 322.245819,508.114441 321.928192,525.243103 
	C321.610474,542.377625 322.163025,559.441223 324.368591,576.427490 
	C330.167297,621.086853 343.405701,663.111816 370.100342,699.941772 
	C391.268555,729.147034 419.110321,749.039368 454.746155,756.994202 
	C464.664307,759.208130 474.740326,760.312744 485.382324,759.215698 
z"/>
</svg>